<?xml version="1.0" encoding="UTF-8"?>
<svg width="74px" height="116px" viewBox="0 0 74 116" version="1.1" xmlns="http://www.w3.org/2000/svg" xmlns:xlink="http://www.w3.org/1999/xlink">
    <!-- Generator: Sketch 46.2 (44496) - http://www.bohemiancoding.com/sketch -->
    <title>bbb-logo</title>
    <desc>Created with Sketch.</desc>
    <defs></defs>
    <g id="Home" stroke="none" stroke-width="1" fill="none" fill-rule="evenodd">
        <g id="bbb-logo" fill="#0A417A">
            <g transform="translate(2.000000, 2.000000)" id="bbb">
                <g>
                    <path d="M28.665,29.016984 L24.6447297,34.5559275 C22.6292342,37.3329713 23.2529279,42.2532164 26.0053153,44.2415066 L33.4584234,49.6258544 C34.7376577,50.5496426 34.8382432,51.4652278 34.2315766,52.4417048 L35.3140541,53.2462335 L39.0868018,48.016797 C41.4185586,44.7851156 41.2151802,40.3873409 37.7571171,37.8671153 L30.2422072,32.3900101 C29.341982,31.733767 29.2492793,30.8178663 29.7474775,29.7905936 L28.665,29.016984 Z M35.1141441,4.52744583 L28.8557658,13.1882762 C25.9204955,17.2500419 26.9878378,24.1860258 30.9977027,27.1306008 L41.2864414,34.6868606 C43.3722523,36.2186202 43.6443694,40.1188491 42.1264414,42.1194438 L42.9986036,42.7741093 L50.096036,32.7824939 C53.2829279,28.2963787 53.0978378,21.6670622 48.0937838,18.0312235 L37.088018,10.0351547 C35.5473874,8.91575553 34.7786486,7.01359727 36.0613514,5.19725542 L35.1141441,4.52744583 Z M18.6206306,58.8413363 L26.9146847,58.8413363 L28.3925676,63.8726379 C32.9104054,63.8726379 37.4282432,63.8726379 41.9460811,63.8726379 L43.4242793,58.8413363 L51.7183333,58.8413363 L50.6311261,55.1408197 C40.3234685,55.1408197 30.0154955,55.1408197 19.7078378,55.1408197 L18.6206306,58.8413363 Z M6.61626126,0.300988385 L62.8303604,0.300988385 C66.4694144,0.300988385 69.4466216,3.2802686 69.4466216,6.92115535 L69.4466216,106.329353 C69.4466216,109.97024 66.4694144,112.94952 62.8303604,112.94952 L6.61626126,112.94952 C2.97752252,112.94952 0,109.97024 0,106.329353 L0,6.92115535 C0,3.2802686 2.97752252,0.300988385 6.61626126,0.300988385 Z M6.61626126,0.755310476 L62.8303604,0.755310476 C66.2196847,0.755310476 68.9925676,3.53014574 68.9925676,6.92115535 L68.9925676,106.329353 C68.9925676,109.720362 66.2196847,112.495198 62.8303604,112.495198 L6.61626126,112.495198 C3.22693694,112.495198 0.454054054,109.720362 0.454054054,106.329353 L0.454054054,6.92115535 C0.454054054,3.53014574 3.22693694,0.755310476 6.61626126,0.755310476 Z M67.6304054,90.8517981 L67.6304054,106.329353 C67.6304054,108.970731 65.4704955,111.132231 62.8303604,111.132231 L6.61626126,111.132231 C3.97644144,111.132231 1.81621622,108.970731 1.81621622,106.329353 L1.81621622,90.8517981 L67.6304054,90.8517981 Z M12.8885135,99.3908449 L10.424009,93.2335185 L9.16400901,93.2335185 L6.68121622,99.3908449 L8.07081081,99.3908449 L8.58036036,98.0187291 L10.9521622,98.0187291 L11.4617117,99.3908449 L12.8885135,99.3908449 Z M10.5075676,96.8488497 L9.02495495,96.8488497 L9.4418018,95.731659 C9.50990991,95.5499302 9.57328829,95.3738804 9.63193694,95.2038251 C9.69058559,95.0337698 9.73536036,94.8902167 9.76626126,94.7728501 C9.79716216,94.8902167 9.84193694,95.0337698 9.90058559,95.2038251 C9.95923423,95.3738804 10.0226126,95.5499302 10.0904054,95.731659 L10.5075676,96.8488497 Z M18.3645946,94.2383907 C17.9818018,93.7976351 17.3795495,93.3928468 16.8113514,93.2379356 C16.5644595,93.1704182 16.2895045,93.1366596 15.9868018,93.1366596 C15.5608108,93.1366596 15.1717117,93.2145885 14.8195045,93.3698152 C14.4676126,93.5253574 14.1649099,93.7421069 13.9117117,94.0206947 C13.6585135,94.2992824 13.4608108,94.633714 13.3186036,95.0236738 C13.1767117,95.4136336 13.1054505,95.843031 13.1054505,96.3121817 C13.1054505,96.7990004 13.1735586,97.237232 13.3094595,97.6271918 C13.4453604,98.0174671 13.6383333,98.3500056 13.8883784,98.6257539 C14.1387387,98.9015021 14.4367117,99.1138346 14.7826126,99.2633823 C15.1281982,99.41293 15.5144595,99.4877038 15.9404505,99.4877038 C16.7252703,99.4877038 18.0852252,99.0579908 18.4724324,98.2925843 L17.5501351,97.4744891 C17.2881081,97.892213 16.4689189,98.2651357 15.9776577,98.2651357 C15.7367568,98.2651357 15.5204505,98.2152865 15.3290541,98.115588 C15.1376577,98.0158895 14.9755856,97.8780154 14.8428378,97.7019656 C14.7097748,97.5262313 14.6095045,97.3195778 14.5417117,97.0820052 C14.4736036,96.8444327 14.4395495,96.58793 14.4395495,96.3121817 C14.4395495,96.0247599 14.4736036,95.7625782 14.5417117,95.5250056 C14.6095045,95.287433 14.7081982,95.0820415 14.8381081,94.9091468 C14.9677027,94.736252 15.1281982,94.6015328 15.3199099,94.5046739 C15.5113063,94.4078149 15.7276126,94.3595432 15.9681982,94.3595432 C16.4553604,94.3595432 17.1433784,94.6823012 17.4653153,95.1057042 L18.3645946,94.2383907 Z M30.6707207,99.3908449 L29.2316216,97.0514016 C29.6456306,96.8986989 30.1066216,96.6216886 30.3134685,96.3254328 C30.5203153,96.0294924 30.6237387,95.6496287 30.6237387,95.186157 C30.6237387,94.8580355 30.5650901,94.5721912 30.4477928,94.3286241 C30.3304955,94.0853725 30.1696847,93.8815585 29.965991,93.7174978 C29.761982,93.5531215 29.5242342,93.4313379 29.2527477,93.3521471 C28.9809459,93.2732717 28.6936937,93.2335185 28.390991,93.2335185 L25.3705856,93.2335185 L25.3705856,99.3908449 L26.6677928,99.3908449 L26.6677928,97.1744472 L27.8234234,97.2271359 L29.178964,99.3908449 L30.6707207,99.3908449 Z M29.2896396,95.2126591 C29.2896396,95.7461721 28.9809459,96.0130863 28.3632432,96.0130863 L26.6677928,96.0130863 L26.6677928,94.4299 L28.3632432,94.4299 C28.6533333,94.4299 28.8803604,94.4898453 29.0443243,94.6100514 C29.2076577,94.7302574 29.2896396,94.9312319 29.2896396,95.2126591 Z M36.1218919,99.3908449 L36.1218919,98.1859448 L32.7773423,98.1859448 L32.7773423,96.699302 L35.4685586,96.699302 L35.4685586,95.5029205 L32.7773423,95.5029205 L32.7773423,94.4387341 L35.9828378,94.4387341 L35.9828378,93.2335185 L31.4801351,93.2335185 L31.4801351,99.3908449 L36.1218919,99.3908449 Z M42.3424324,96.3121817 C42.3424324,95.7493271 42.2607658,95.2729199 42.0968018,94.8829601 C41.9331532,94.4930003 41.7077027,94.1746594 41.4207658,93.9282527 C41.1335135,93.6821616 40.7936036,93.5048498 40.4016667,93.3963173 C40.0094144,93.2877848 39.5815315,93.2335185 39.1183333,93.2335185 L37.0892793,93.2335185 L37.0892793,99.3908449 L39.0256306,99.3908449 C39.4396396,99.3908449 39.8457658,99.3324771 40.244009,99.2151106 C40.6425676,99.097744 40.9976126,98.9144377 41.3094595,98.6651915 C41.6213063,98.4159454 41.8716667,98.0963424 42.0599099,97.7063826 C42.2484685,97.3164228 42.3424324,96.8516892 42.3424324,96.3121817 Z M41.0083333,96.3121817 C41.0083333,96.593609 40.9682883,96.8504272 40.8878829,97.0820052 C40.8074775,97.3135833 40.687027,97.5114027 40.5265315,97.675779 C40.366036,97.8398397 40.1604505,97.9676178 39.9104054,98.0584822 C39.6603604,98.1493467 39.3652252,98.1947789 39.0256306,98.1947789 L38.3864865,98.1947789 L38.3864865,94.4299 L39.071982,94.4299 C39.7577928,94.4299 40.2518919,94.5867043 40.5542793,94.9003127 C40.856982,95.2142367 41.0083333,95.6846493 41.0083333,96.3121817 Z M43.5973874,99.3908449 L44.8945946,99.3908449 L44.8945946,93.2335185 L43.5973874,93.2335185 L43.5973874,99.3908449 Z M50.9388739,94.4472526 L50.9388739,93.2335185 L45.9174775,93.2335185 L45.9174775,94.4472526 L47.7797297,94.4472526 L47.7797297,99.3908449 L49.0766216,99.3908449 L49.0766216,94.4472526 L50.9388739,94.4472526 Z M62.638964,96.3121817 C62.638964,95.7493271 62.5572973,95.2729199 62.3933333,94.8829601 C62.2296847,94.4930003 62.0042342,94.1746594 61.7172973,93.9282527 C61.430045,93.6821616 61.0901351,93.5048498 60.6978829,93.3963173 C60.3059459,93.2877848 59.8780631,93.2335185 59.4148649,93.2335185 L57.3858108,93.2335185 L57.3858108,99.3908449 L59.3221622,99.3908449 C59.7361712,99.3908449 60.141982,99.3324771 60.5405405,99.2151106 C60.9387838,99.097744 61.2941441,98.9144377 61.605991,98.6651915 C61.9178378,98.4159454 62.1678829,98.0963424 62.3564414,97.7063826 C62.5446847,97.3164228 62.638964,96.8516892 62.638964,96.3121817 Z M61.3048649,96.3121817 C61.3048649,96.593609 61.2648198,96.8504272 61.1844144,97.0820052 C61.104009,97.3135833 60.9835586,97.5114027 60.8230631,97.675779 C60.6625676,97.8398397 60.456982,97.9676178 60.2069369,98.0584822 C59.9568919,98.1493467 59.6620721,98.1947789 59.3221622,98.1947789 L58.683018,98.1947789 L58.683018,94.4299 L59.3685135,94.4299 C60.054009,94.4299 60.5481081,94.5867043 60.8508108,94.9003127 C61.1535135,95.2142367 61.3048649,95.6846493 61.3048649,96.3121817 Z M56.4136937,99.3908449 L56.4136937,98.1859448 L53.0691441,98.1859448 L53.0691441,96.699302 L55.7603604,96.699302 L55.7603604,95.5029205 L53.0691441,95.5029205 L53.0691441,94.4387341 L56.2746396,94.4387341 L56.2746396,93.2335185 L51.7719369,93.2335185 L51.7719369,99.3908449 L56.4136937,99.3908449 Z M45.5614865,107.341797 L45.5614865,106.136581 L42.2169369,106.136581 L42.2169369,104.649939 L44.9084685,104.649939 L44.9084685,103.453557 L42.2169369,103.453557 L42.2169369,102.389371 L45.4227477,102.389371 L45.4227477,101.184155 L40.920045,101.184155 L40.920045,107.341797 L45.5614865,107.341797 Z M24.3530631,94.2383907 C23.9705856,93.7976351 23.3683333,93.3928468 22.8001351,93.2379356 C22.5529279,93.1704182 22.277973,93.1366596 21.9752703,93.1366596 C21.5492793,93.1366596 21.1601802,93.2145885 20.807973,93.3698152 C20.4560811,93.5253574 20.1533784,93.7421069 19.9001802,94.0206947 C19.646982,94.2992824 19.4492793,94.633714 19.3070721,95.0236738 C19.1651802,95.4136336 19.0942342,95.843031 19.0942342,96.3121817 C19.0942342,96.7990004 19.162027,97.237232 19.2979279,97.6271918 C19.4338288,98.0174671 19.6268018,98.3500056 19.8768468,98.6257539 C20.1272072,98.9015021 20.4251802,99.1138346 20.7710811,99.2633823 C21.116982,99.41293 21.5029279,99.4877038 21.9289189,99.4877038 C22.7140541,99.4877038 24.0736937,99.0579908 24.4609009,98.2925843 L23.5386036,97.4744891 C23.2765766,97.892213 22.4573874,98.2651357 21.9661261,98.2651357 C21.7252252,98.2651357 21.5089189,98.2152865 21.3175225,98.115588 C21.1261261,98.0158895 20.9640541,97.8780154 20.8313063,97.7019656 C20.6982432,97.5262313 20.597973,97.3195778 20.5301802,97.0820052 C20.4620721,96.8444327 20.4283333,96.58793 20.4283333,96.3121817 C20.4283333,96.0247599 20.4620721,95.7625782 20.5301802,95.5250056 C20.597973,95.287433 20.696982,95.0820415 20.8265766,94.9091468 C20.9564865,94.736252 21.116982,94.6015328 21.3083784,94.5046739 C21.4997748,94.4078149 21.7160811,94.3595432 21.956982,94.3595432 C22.4438288,94.3595432 23.1321622,94.6823012 23.4537838,95.1057042 L24.3530631,94.2383907 Z M19.0516667,105.353507 C19.0516667,105.013396 18.9674775,104.731969 18.7987838,104.509225 C18.6304054,104.286165 18.4197748,104.119265 18.1668919,104.007893 C18.3775225,103.884532 18.5414865,103.720471 18.6587838,103.51508 C18.7763964,103.310004 18.835045,103.075271 18.835045,102.811512 C18.835045,102.283678 18.6543694,101.880467 18.2933333,101.601879 C17.9322973,101.323291 17.4448198,101.184155 16.8312162,101.184155 L13.9337838,101.184155 L13.9337838,107.341797 L16.8040991,107.341797 C17.1411712,107.341797 17.447973,107.299204 17.7248198,107.214019 C18.0013514,107.129149 18.2378378,107.002948 18.4333333,106.835733 C18.6288288,106.668832 18.7808108,106.460601 18.888964,106.211355 C18.9974324,105.962109 19.0516667,105.676265 19.0516667,105.353507 Z M17.5532883,102.908371 C17.5532883,103.078426 17.5006306,103.217562 17.3953153,103.326094 C17.29,103.434627 17.1049099,103.488893 16.840045,103.488893 L15.1701351,103.488893 L15.1701351,102.319014 L16.776982,102.319014 C17.0538288,102.319014 17.2521622,102.368863 17.3726126,102.468562 C17.4930631,102.56826 17.5532883,102.714653 17.5532883,102.908371 Z M17.7516216,105.371175 C17.7516216,105.617582 17.6781532,105.812561 17.5305856,105.956115 C17.3833333,106.099983 17.155991,106.171602 16.8491892,106.171602 L15.1701351,106.171602 L15.1701351,104.579582 L16.8491892,104.579582 C17.4508108,104.579582 17.7516216,104.843341 17.7516216,105.371175 Z M25.0127027,104.623436 L25.0127027,101.184155 L23.7492342,101.184155 L23.7492342,104.641105 C23.7492342,105.139597 23.6331982,105.529557 23.4017568,105.810984 C23.17,106.092411 22.8524775,106.23344 22.4495045,106.23344 C22.0462162,106.23344 21.7302703,106.089572 21.5016667,105.802465 C21.2730631,105.515044 21.1586036,105.121929 21.1586036,104.623436 L21.1586036,101.184155 L19.8948198,101.184155 L19.8948198,104.641105 C19.8948198,105.092587 19.9566216,105.491381 20.0799099,105.837486 C20.2031982,106.183591 20.3763063,106.475114 20.5989189,106.712687 C20.8215315,106.95026 21.0908108,107.130411 21.4067568,107.253772 C21.7227027,107.376818 22.0701802,107.43834 22.4495045,107.43834 C23.2557658,107.43834 23.8845045,107.193511 24.3357207,106.703853 C24.7872523,106.214195 25.0127027,105.520723 25.0127027,104.623436 Z M30.8204955,105.476868 C30.8204955,105.142436 30.7574324,104.867004 30.630991,104.649939 C30.5045495,104.432874 30.3409009,104.253984 30.1390991,104.113271 C29.9376126,103.972557 29.7118468,103.862762 29.4621171,103.783572 C29.2123874,103.704381 28.9613964,103.635286 28.7085135,103.576918 C28.4556306,103.518235 28.2481532,103.465231 28.0857658,103.418536 C27.9230631,103.371527 27.7937838,103.321677 27.6976126,103.268989 C27.6011261,103.2163 27.5336486,103.156039 27.4945495,103.088522 C27.4554505,103.021005 27.4355856,102.937712 27.4355856,102.837698 C27.4355856,102.767341 27.4507207,102.70014 27.480991,102.635462 C27.5109459,102.5711 27.562027,102.512416 27.6342342,102.459727 C27.7064414,102.406723 27.7997748,102.364446 27.9142342,102.332265 C28.0283784,102.299768 28.169955,102.283678 28.3383333,102.283678 C28.6271622,102.283678 28.8872973,102.337944 29.1193694,102.446476 C29.3508108,102.555009 29.569009,102.711813 29.7736486,102.916889 L30.6852252,102.054939 C30.3844144,101.750165 30.0489189,101.512592 29.6787387,101.342537 C29.3085586,101.172482 28.8768919,101.087296 28.3834234,101.087296 C28.0706306,101.087296 27.7773874,101.128311 27.5033784,101.210657 C27.2296847,101.292688 26.9906757,101.411316 26.786036,101.566858 C26.5813964,101.722085 26.4202703,101.911386 26.302973,102.13413 C26.1856757,102.356874 26.127027,102.609275 26.127027,102.890702 C26.127027,103.195477 26.174955,103.450718 26.2714414,103.655794 C26.3676126,103.861185 26.5031982,104.03124 26.6775676,104.166275 C26.8519369,104.300994 27.0613063,104.412366 27.3047297,104.500391 C27.5484685,104.588416 27.8149099,104.664767 28.1037387,104.729129 C28.3985586,104.793492 28.6394595,104.85533 28.8258108,104.913698 C29.0124775,104.972381 29.1553153,105.034219 29.2546396,105.098582 C29.353964,105.162944 29.4214414,105.232039 29.4577027,105.305235 C29.4936486,105.378431 29.5119369,105.465194 29.5119369,105.564893 C29.5119369,105.79931 29.423018,105.969366 29.2454955,106.075059 C29.067973,106.180436 28.7898649,106.23344 28.4105405,106.23344 C28.1037387,106.23344 27.8133333,106.178859 27.5396396,106.070642 C27.2659459,105.962109 27.0174775,105.781642 26.7948649,105.529557 L25.8832883,106.32115 C26.1238739,106.667255 26.4609459,106.939848 26.8941892,107.139245 C27.3274324,107.338642 27.8089189,107.43834 28.3383333,107.43834 C28.7715766,107.43834 29.1433333,107.391331 29.4532883,107.297627 C29.7629279,107.203923 30.0202252,107.070466 30.2248649,106.897571 C30.4295045,106.724361 30.5799099,106.517707 30.6760811,106.277295 C30.7725676,106.036883 30.8204955,105.769969 30.8204955,105.476868 Z M31.8446396,107.341797 L33.1084234,107.341797 L33.1084234,101.184155 L31.8446396,101.184155 L31.8446396,107.341797 Z M39.538964,107.341797 L39.538964,101.184155 L38.2931532,101.184155 L38.2931532,103.787989 C38.2931532,103.875698 38.2947297,103.984231 38.2975676,104.113271 C38.3007207,104.242311 38.3022973,104.37419 38.3022973,104.509225 C38.3022973,104.638265 38.3035586,104.759733 38.3067117,104.87426 C38.3098649,104.988787 38.3114414,105.075235 38.3114414,105.133602 C38.2691892,105.051572 38.2045495,104.944617 38.1172072,104.812737 C38.0298649,104.680858 37.9472523,104.556235 37.8690541,104.438868 L35.6306306,101.184155 L34.4207658,101.184155 L34.4207658,107.341797 L35.6665766,107.341797 L35.6665766,104.63227 C35.6665766,104.544246 35.665,104.435713 35.6621622,104.306988 C35.659009,104.177948 35.6574324,104.048908 35.6574324,103.919868 C35.6574324,103.784834 35.6561712,103.660526 35.653018,103.545999 C35.6498649,103.431472 35.6486036,103.345025 35.6486036,103.286341 C35.6905405,103.368687 35.7554955,103.475642 35.8425225,103.607522 C35.9298649,103.739401 36.0124775,103.864024 36.0906757,103.981391 L38.4104505,107.341797 L39.538964,107.341797 Z M50.7213063,105.476868 C50.7213063,105.142436 50.6582432,104.867004 50.5318018,104.649939 C50.4053604,104.432874 50.2413964,104.253984 50.0395946,104.113271 C49.8384234,103.972557 49.6126577,103.862762 49.3629279,103.783572 C49.1131982,103.704381 48.8618919,103.635286 48.6093243,103.576918 C48.3564414,103.518235 48.148964,103.465231 47.9862613,103.418536 C47.8238739,103.371527 47.6945946,103.321677 47.5981081,103.268989 C47.5019369,103.2163 47.4341441,103.156039 47.395045,103.088522 C47.3559459,103.021005 47.3363964,102.937712 47.3363964,102.837698 C47.3363964,102.767341 47.3515315,102.70014 47.3814865,102.635462 C47.4117568,102.5711 47.4628378,102.512416 47.535045,102.459727 C47.6072523,102.406723 47.7005856,102.364446 47.8147297,102.332265 C47.9291892,102.299768 48.0704505,102.283678 48.2391441,102.283678 C48.527973,102.283678 48.7881081,102.337944 49.0198649,102.446476 C49.2516216,102.555009 49.4695045,102.711813 49.6741441,102.916889 L50.586036,102.054939 C50.2849099,101.750165 49.9494144,101.512592 49.5795495,101.342537 C49.2093694,101.172482 48.7777027,101.087296 48.2842342,101.087296 C47.9714414,101.087296 47.6778829,101.128311 47.4041892,101.210657 C47.1304955,101.292688 46.8911712,101.411316 46.6865315,101.566858 C46.4818919,101.722085 46.3210811,101.911386 46.2037838,102.13413 C46.0864865,102.356874 46.0278378,102.609275 46.0278378,102.890702 C46.0278378,103.195477 46.0757658,103.450718 46.1719369,103.655794 C46.2684234,103.861185 46.4036937,104.03124 46.5780631,104.166275 C46.7527477,104.300994 46.9618018,104.412366 47.2055405,104.500391 C47.4492793,104.588416 47.7154054,104.664767 48.0045495,104.729129 C48.2993694,104.793492 48.539955,104.85533 48.7266216,104.913698 C48.912973,104.972381 49.0558108,105.034219 49.1551351,105.098582 C49.2544595,105.162944 49.3222523,105.232039 49.3581982,105.305235 C49.3944595,105.378431 49.4124324,105.465194 49.4124324,105.564893 C49.4124324,105.79931 49.3238288,105.969366 49.1463063,106.075059 C48.9687838,106.180436 48.6903604,106.23344 48.3113514,106.23344 C48.0045495,106.23344 47.7141441,106.178859 47.4401351,106.070642 C47.1664414,105.962109 46.9182883,105.781642 46.6956757,105.529557 L45.7840991,106.32115 C46.0246847,106.667255 46.3617568,106.939848 46.795,107.139245 C47.2282432,107.338642 47.7097297,107.43834 48.2391441,107.43834 C48.6723874,107.43834 49.0438288,107.391331 49.3537838,107.297627 C49.6637387,107.203923 49.921036,107.070466 50.1256757,106.897571 C50.33,106.724361 50.4807207,106.517707 50.5768919,106.277295 C50.6730631,106.036883 50.7213063,105.769969 50.7213063,105.476868 Z M56.1500901,105.476868 C56.1500901,105.142436 56.087027,104.867004 55.9605856,104.649939 C55.8341441,104.432874 55.6701802,104.253984 55.4686937,104.113271 C55.2668919,103.972557 55.0414414,103.862762 54.7917117,103.783572 C54.541982,103.704381 54.2906757,103.635286 54.0377928,103.576918 C53.7852252,103.518235 53.5777477,103.465231 53.415045,103.418536 C53.2526577,103.371527 53.1233784,103.321677 53.0268919,103.268989 C52.9307207,103.2163 52.8629279,103.156039 52.8238288,103.088522 C52.7847297,103.021005 52.7651802,102.937712 52.7651802,102.837698 C52.7651802,102.767341 52.7803153,102.70014 52.8102703,102.635462 C52.8405405,102.5711 52.8916216,102.512416 52.9638288,102.459727 C53.036036,102.406723 53.1293694,102.364446 53.2435135,102.332265 C53.357973,102.299768 53.4992342,102.283678 53.6679279,102.283678 C53.9567568,102.283678 54.2168919,102.337944 54.4486486,102.446476 C54.6800901,102.555009 54.8982883,102.711813 55.1029279,102.916889 L56.0148198,102.054939 C55.7136937,101.750165 55.3785135,101.512592 55.0083333,101.342537 C54.6381532,101.172482 54.2064865,101.087296 53.713018,101.087296 C53.3999099,101.087296 53.1066667,101.128311 52.832973,101.210657 C52.5592793,101.292688 52.319955,101.411316 52.1153153,101.566858 C51.9106757,101.722085 51.7498649,101.911386 51.6325676,102.13413 C51.514955,102.356874 51.4563063,102.609275 51.4563063,102.890702 C51.4563063,103.195477 51.5045495,103.450718 51.6007207,103.655794 C51.6968919,103.861185 51.8324775,104.03124 52.0071622,104.166275 C52.1815315,104.300994 52.3905856,104.412366 52.6343243,104.500391 C52.8780631,104.588416 53.1441892,104.664767 53.433018,104.729129 C53.7281532,104.793492 53.9687387,104.85533 54.1550901,104.913698 C54.3417568,104.972381 54.4845946,105.034219 54.5839189,105.098582 C54.6832432,105.162944 54.751036,105.232039 54.786982,105.305235 C54.8232432,105.378431 54.8412162,105.465194 54.8412162,105.564893 C54.8412162,105.79931 54.7522973,105.969366 54.5750901,106.075059 C54.3975676,106.180436 54.1191441,106.23344 53.7401351,106.23344 C53.433018,106.23344 53.1429279,106.178859 52.8692342,106.070642 C52.5952252,105.962109 52.3470721,105.781642 52.1244595,105.529557 L51.2125676,106.32115 C51.4534685,106.667255 51.7902252,106.939848 52.2237838,107.139245 C52.657027,107.338642 53.1381982,107.43834 53.6679279,107.43834 C54.1011712,107.43834 54.4726126,107.391331 54.7825676,107.297627 C55.0925225,107.203923 55.3498198,107.070466 55.5544595,106.897571 C55.7590991,106.724361 55.9091892,106.517707 56.0056757,106.277295 C56.1018468,106.036883 56.1500901,105.769969 56.1500901,105.476868 Z M19.2471622,81.8057405 L14.2781081,81.8057405 L14.2781081,77.6423833 L19.2471622,77.6423833 C22.901982,77.6423833 22.6793694,81.8057405 19.2471622,81.8057405 Z M36.2741892,81.8057405 L31.3051351,81.8057405 L31.3051351,77.6423833 L36.2741892,77.6423833 C39.929009,77.6423833 39.7063964,81.8057405 36.2741892,81.8057405 Z M53.3012162,81.8057405 L48.3321622,81.8057405 L48.3321622,77.6423833 L53.3012162,77.6423833 C56.956036,77.6423833 56.7334234,81.8057405 53.3012162,81.8057405 Z M18.9088288,74.3870393 L14.2781081,74.3870393 L14.2781081,70.4946979 L18.7338288,70.4946979 C21.5177477,70.4946979 21.6183333,74.3870393 18.9088288,74.3870393 Z M35.9358559,74.3870393 L31.3051351,74.3870393 L31.3051351,70.4946979 L35.7608559,70.4946979 C38.5447748,70.4946979 38.6453604,74.3870393 35.9358559,74.3870393 Z M52.9628829,74.3870393 L48.3321622,74.3870393 L48.3321622,70.4946979 L52.7878829,70.4946979 C55.5718018,70.4946979 55.6723874,74.3870393 52.9628829,74.3870393 Z M25.7508559,79.4874358 C25.3970721,77.0949883 24.4337838,76.5220376 22.5065766,75.6714457 C23.963964,74.8186453 24.8591441,73.563896 24.8591441,71.8447286 C24.8591441,68.4070248 22.044955,67.0071449 18.9747297,67.0071449 L10.3987838,67.0071449 L10.3987838,85.2532248 L18.8946396,85.2532248 C22.5232883,85.2532248 26.3682432,83.665937 25.7508559,79.4874358 Z M42.7778829,79.4874358 C42.4240991,77.0949883 41.4608108,76.5220376 39.5336036,75.6714457 C40.990991,74.8186453 41.8861712,73.563896 41.8861712,71.8447286 C41.8861712,68.4070248 39.071982,67.0071449 36.0017568,67.0071449 L27.4258108,67.0071449 L27.4258108,85.2532248 L35.9216667,85.2532248 C39.5503153,85.2532248 43.3952703,83.665937 42.7778829,79.4874358 Z M59.8049099,79.4874358 C59.4511261,77.0949883 58.4878378,76.5220376 56.5606306,75.6714457 C58.018018,74.8186453 58.9131982,73.563896 58.9131982,71.8447286 C58.9131982,68.4070248 56.099009,67.0071449 53.0287838,67.0071449 L44.4528378,67.0071449 L44.4528378,85.2532248 L52.9486937,85.2532248 C56.5773423,85.2532248 60.4222973,83.665937 59.8049099,79.4874358 Z M61.4514865,84.6547186 C61.4514865,84.5780517 61.4413964,84.5105344 61.4212162,84.4515356 C61.4013514,84.3928524 61.3676126,84.3389016 61.32,84.2899989 C61.2727027,84.2407807 61.209955,84.1956639 61.1311261,84.1546488 C61.0526126,84.1133181 60.9548649,84.0723029 60.8381982,84.0309722 C60.7313063,83.993743 60.6452252,83.9593534 60.5796396,83.9281187 C60.5143694,83.8968841 60.4632883,83.8650184 60.427027,83.8325218 C60.3907658,83.8000251 60.3668018,83.7668975 60.3545045,83.7325078 C60.3425225,83.6981182 60.3365315,83.659627 60.3365315,83.6164033 C60.3365315,83.5750726 60.3440991,83.5362659 60.3589189,83.5002987 C60.3743694,83.4640161 60.3983333,83.4321504 60.4317568,83.4047018 C60.4648649,83.3772532 60.5077477,83.3551681 60.5600901,83.3384465 C60.6124324,83.3217249 60.6748649,83.3135219 60.7473874,83.3135219 C60.8542793,83.3135219 60.9463514,83.3296125 61.0239189,83.3617936 C61.1014865,83.3942903 61.1784234,83.441931 61.255045,83.5047158 L61.4063964,83.3251954 C61.3174775,83.2567316 61.2235135,83.2027809 61.1235586,83.1633432 C61.0239189,83.124221 60.9034685,83.1046599 60.7625225,83.1046599 C60.6638288,83.1046599 60.5736486,83.1163335 60.491982,83.1399961 C60.4103153,83.1633432 60.3409459,83.1980484 60.2835586,83.2441116 C60.2261712,83.2904903 60.1813964,83.345703 60.1489189,83.4103808 C60.1167568,83.4750586 60.1006757,83.5485705 60.1006757,83.6309164 C60.1006757,83.7053747 60.1113964,83.7713145 60.1325225,83.8281048 C60.1536486,83.884895 60.1877027,83.9363218 60.235,83.982385 C60.2826126,84.0284482 60.345045,84.0716719 60.4226126,84.1120561 C60.5001802,84.1521247 60.5963514,84.1918779 60.7111261,84.2310001 C60.8079279,84.2644433 60.8883333,84.2972554 60.952973,84.3297521 C61.0172973,84.3619332 61.0693243,84.3947454 61.1084234,84.4281885 C61.1478378,84.4613162 61.1755856,84.4975988 61.1916667,84.5370365 C61.2077477,84.5761587 61.2159459,84.6193824 61.2159459,84.6663921 C61.2159459,84.7761866 61.174955,84.8623185 61.0936036,84.9251033 C61.0119369,84.9878881 60.9006306,85.0194382 60.7596847,85.0194382 C60.6509009,85.0194382 60.55,84.9967221 60.4572973,84.9516054 C60.3645946,84.9064887 60.2778829,84.8468589 60.1974775,84.7720851 L60.0401351,84.9427714 C60.124955,85.0251173 60.2280631,85.0932656 60.3500901,85.1472163 C60.4718018,85.2011671 60.6054955,85.2279847 60.7505405,85.2279847 C60.8612162,85.2279847 60.9599099,85.2134716 61.0466216,85.1838145 C61.1333333,85.1544729 61.2068018,85.1144042 61.2673423,85.0632929 C61.3275676,85.0124972 61.3736036,84.9516054 61.4048198,84.8809331 C61.436036,84.8105763 61.4514865,84.7348559 61.4514865,84.6547186 Z M63.6457658,85.1958036 L63.6457658,83.1368411 L63.3887838,83.1368411 L62.8842793,84.3691897 C62.871982,84.3988469 62.8584234,84.4319745 62.8432883,84.4692037 C62.8281532,84.5064329 62.8136486,84.5436621 62.7994595,84.5812067 C62.7855856,84.6184359 62.7723423,84.6537721 62.7603604,84.6868997 C62.7480631,84.7203429 62.7389189,84.7477915 62.7329279,84.7692456 C62.7269369,84.7477915 62.7181081,84.7206584 62.7058108,84.6884772 C62.6938288,84.6559806 62.6805856,84.6212754 62.6667117,84.5840462 C62.6525225,84.5468171 62.638018,84.5095879 62.6228829,84.4723587 C62.6077477,84.434814 62.5941892,84.4007399 62.5818919,84.3691897 L62.0833784,83.1368411 L61.8204054,83.1368411 L61.8204054,85.1958036 L62.0471171,85.1958036 L62.0471171,83.5810671 C62.0531081,83.6006282 62.0606757,83.6246063 62.0698198,83.6530015 C62.0786486,83.6817121 62.0887387,83.7110537 62.1000901,83.7413419 C62.1111261,83.77163 62.1224775,83.8031801 62.1347748,83.8353613 C62.1467568,83.8678579 62.1587387,83.8968841 62.171036,83.9221242 L62.7269369,85.2488078 L63.291982,83.9221242 C63.3042793,83.8946756 63.3162613,83.8653339 63.3285586,83.8340993 C63.3405405,83.8025491 63.3525225,83.77163 63.3648198,83.7413419 C63.3768018,83.7110537 63.3875225,83.6817121 63.3963514,83.6530015 C63.4054955,83.6246063 63.4130631,83.6006282 63.4190541,83.5810671 L63.4190541,85.1958036 L63.6457658,85.1958036 L63.6457658,85.1958036 Z"></path>
                </g>
            </g>
        </g>
    </g>
</svg>