<?xml version="1.0" encoding="UTF-8"?>
<svg width="249px" height="20px" viewBox="0 0 249 20" version="1.1" xmlns="http://www.w3.org/2000/svg" xmlns:xlink="http://www.w3.org/1999/xlink">
    <!-- Generator: Sketch 46.2 (44496) - http://www.bohemiancoding.com/sketch -->
    <title>jorges-concrete-horizontal-orange-logo</title>
    <desc>Created with Sketch.</desc>
    <defs></defs>
    <g id="Home" stroke="none" stroke-width="1" fill="none" fill-rule="evenodd">
        <g id="jorges-concrete-horizontal-orange-logo" fill="#FF881A">
            <g transform="translate(1.000000, 0.000000)" id="JORGE’S-CONCRETE">
                <g>
                    <path d="M0.286,15.048 L3.926,15.048 L3.926,0.8 L9.386,0.8 L9.386,17.18 C9.386,17.6653358 9.20400182,18.0899982 8.84,18.454 C8.47599818,18.8180018 8.05133576,19 7.566,19 L2.106,19 L0.286,15.048 Z M11.284,2.62 C11.284,2.13466424 11.4703315,1.71000182 11.843,1.346 C12.2156685,0.98199818 12.6359977,0.8 13.104,0.8 L24.648,0.8 C25.1160023,0.8 25.5363315,0.98199818 25.909,1.346 C26.2816685,1.71000182 26.468,2.13466424 26.468,2.62 L26.468,17.18 C26.468,17.6826692 26.2816685,18.1116649 25.909,18.467 C25.5363315,18.8223351 25.1160023,19 24.648,19 L13.104,19 C12.6359977,19 12.2156685,18.8223351 11.843,18.467 C11.4703315,18.1116649 11.284,17.6826692 11.284,17.18 L11.284,2.62 Z M21.008,15.048 L21.008,4.752 L16.744,4.752 L16.744,15.048 L21.008,15.048 Z M28.34,0.8 L41.678,0.8 C42.1633358,0.8 42.5879982,0.98199818 42.952,1.346 C43.3160018,1.71000182 43.498,2.13466424 43.498,2.62 L43.498,9.588 C43.498,10.0733358 43.3160018,10.4979982 42.952,10.862 C42.5879982,11.2260018 42.1633358,11.408 41.678,11.408 L40.612,11.408 L44.096,19 L39.26,19 L34.398,8.392 L38.038,8.392 L38.038,4.752 L33.8,4.752 L33.8,19 L28.34,19 L28.34,0.8 Z M45.838,2.62 C45.838,2.13466424 46.0243315,1.71000182 46.397,1.346 C46.7696685,0.98199818 47.1899977,0.8 47.658,0.8 L61.022,0.8 L59.202,4.752 L51.298,4.752 L51.298,15.048 L55.562,15.048 L55.562,11.408 L53.43,11.408 L53.43,8.392 L61.022,8.392 L61.022,19 L47.658,19 C47.1899977,19 46.7696685,18.8223351 46.397,18.467 C46.0243315,18.1116649 45.838,17.6826692 45.838,17.18 L45.838,2.62 Z M62.868,0.8 L78.052,0.8 L76.232,4.752 L68.328,4.752 L68.328,8.392 L76.232,8.392 L76.232,11.408 L68.328,11.408 L68.328,15.048 L78.052,15.048 L76.232,19 L62.868,19 L62.868,0.8 Z M80.86,1.606 L84.812,1.606 L83.304,8.574 L79.352,8.574 L80.86,1.606 Z M86.216,15.048 L95.94,15.048 L95.94,11.408 L88.036,11.408 C87.5679977,11.408 87.1476685,11.2303351 86.775,10.875 C86.4023315,10.5196649 86.216,10.0906692 86.216,9.588 L86.216,2.62 C86.216,2.13466424 86.4023315,1.71000182 86.775,1.346 C87.1476685,0.98199818 87.5679977,0.8 88.036,0.8 L101.4,0.8 L101.4,4.752 L91.676,4.752 L91.676,8.392 L99.58,8.392 C100.048002,8.392 100.468331,8.57399818 100.841,8.938 C101.213669,9.30200182 101.4,9.72666424 101.4,10.212 L101.4,17.18 C101.4,17.6826692 101.213669,18.1116649 100.841,18.467 C100.468331,18.8223351 100.048002,19 99.58,19 L88.036,19 L86.216,15.048 Z M113.672,2.62 C113.672,2.13466424 113.858331,1.71000182 114.231,1.346 C114.603669,0.98199818 115.023998,0.8 115.492,0.8 L128.856,0.8 L127.036,4.752 L119.132,4.752 L119.132,15.048 L128.856,15.048 L127.036,19 L115.492,19 C115.023998,19 114.603669,18.8223351 114.231,18.467 C113.858331,18.1116649 113.672,17.6826692 113.672,17.18 L113.672,2.62 Z M130.546,2.62 C130.546,2.13466424 130.732331,1.71000182 131.105,1.346 C131.477669,0.98199818 131.897998,0.8 132.366,0.8 L143.91,0.8 C144.378002,0.8 144.798331,0.98199818 145.171,1.346 C145.543669,1.71000182 145.73,2.13466424 145.73,2.62 L145.73,17.18 C145.73,17.6826692 145.543669,18.1116649 145.171,18.467 C144.798331,18.8223351 144.378002,19 143.91,19 L132.366,19 C131.897998,19 131.477669,18.8223351 131.105,18.467 C130.732331,18.1116649 130.546,17.6826692 130.546,17.18 L130.546,2.62 Z M140.27,15.048 L140.27,4.752 L136.006,4.752 L136.006,15.048 L140.27,15.048 Z M147.602,0.8 L160.966,0.8 C161.434002,0.8 161.854331,0.98199818 162.227,1.346 C162.599669,1.71000182 162.786,2.13466424 162.786,2.62 L162.786,19 L157.326,19 L157.326,4.752 L153.062,4.752 L153.062,19 L147.602,19 L147.602,0.8 Z M164.658,2.62 C164.658,2.13466424 164.844331,1.71000182 165.217,1.346 C165.589669,0.98199818 166.009998,0.8 166.478,0.8 L179.842,0.8 L178.022,4.752 L170.118,4.752 L170.118,15.048 L179.842,15.048 L178.022,19 L166.478,19 C166.009998,19 165.589669,18.8223351 165.217,18.467 C164.844331,18.1116649 164.658,17.6826692 164.658,17.18 L164.658,2.62 Z M181.532,0.8 L194.87,0.8 C195.355336,0.8 195.779998,0.98199818 196.144,1.346 C196.508002,1.71000182 196.69,2.13466424 196.69,2.62 L196.69,9.588 C196.69,10.0733358 196.508002,10.4979982 196.144,10.862 C195.779998,11.2260018 195.355336,11.408 194.87,11.408 L193.804,11.408 L197.288,19 L192.452,19 L187.59,8.392 L191.23,8.392 L191.23,4.752 L186.992,4.752 L186.992,19 L181.532,19 L181.532,0.8 Z M199.03,0.8 L214.214,0.8 L212.394,4.752 L204.49,4.752 L204.49,8.392 L212.394,8.392 L212.394,11.408 L204.49,11.408 L204.49,15.048 L214.214,15.048 L212.394,19 L199.03,19 L199.03,0.8 Z M220.324,4.752 L215.462,4.752 L215.462,0.8 L230.646,0.8 L230.646,4.752 L225.784,4.752 L225.784,19 L220.324,19 L220.324,4.752 Z M232.076,0.8 L247.26,0.8 L245.44,4.752 L237.536,4.752 L237.536,8.392 L245.44,8.392 L245.44,11.408 L237.536,11.408 L237.536,15.048 L247.26,15.048 L245.44,19 L232.076,19 L232.076,0.8 Z"></path>
                </g>
            </g>
        </g>
    </g>
</svg>