<?xml version="1.0" encoding="UTF-8"?>
<svg width="135px" height="55px" viewBox="0 0 135 55" version="1.1" xmlns="http://www.w3.org/2000/svg" xmlns:xlink="http://www.w3.org/1999/xlink">
    <!-- Generator: Sketch 46.2 (44496) - http://www.bohemiancoding.com/sketch -->
    <title>jorges-concrete-stacked-logo</title>
    <desc>Created with Sketch.</desc>
    <defs></defs>
    <g id="Home" stroke="none" stroke-width="1" fill="none" fill-rule="evenodd">
        <g id="jorges-concrete-stacked-logo" fill="#FFFFFF">
            <g id="JORGE’S-CONCRETE">
                <path d="M0,20.7039382 L4.7546776,20.7039382 L4.7546776,2 L11.886694,2 L11.886694,23.5027027 C11.886694,24.139823 11.6489625,24.6972949 11.1734924,25.1751351 C10.6980222,25.6529754 10.1433154,25.8918919 9.5093552,25.8918919 L2.3773388,25.8918919 L0,20.7039382 Z M14.3659187,4.38918919 C14.3659187,3.75206889 14.6093105,3.19459698 15.0961014,2.71675676 C15.5828922,2.23891653 16.1319388,2 16.7432575,2 L31.8223779,2 C32.4336967,2 32.9827432,2.23891653 33.4695341,2.71675676 C33.956325,3.19459698 34.1997167,3.75206889 34.1997167,4.38918919 L34.1997167,23.5027027 C34.1997167,24.1625773 33.956325,24.7257377 33.4695341,25.1922008 C32.9827432,25.6586639 32.4336967,25.8918919 31.8223779,25.8918919 L16.7432575,25.8918919 C16.1319388,25.8918919 15.5828922,25.6586639 15.0961014,25.1922008 C14.6093105,24.7257377 14.3659187,24.1625773 14.3659187,23.5027027 L14.3659187,4.38918919 Z M27.0677003,20.7039382 L27.0677003,7.18795367 L21.4979351,7.18795367 L21.4979351,20.7039382 L27.0677003,20.7039382 Z M36.6449795,2 L54.0674767,2 C54.7014369,2 55.2561437,2.23891653 55.7316139,2.71675676 C56.207084,3.19459698 56.4448155,3.75206889 56.4448155,4.38918919 L56.4448155,13.5363707 C56.4448155,14.173491 56.207084,14.7309629 55.7316139,15.2088031 C55.2561437,15.6866433 54.7014369,15.9255598 54.0674767,15.9255598 L52.6750354,15.9255598 L57.2259411,25.8918919 L50.9090123,25.8918919 L44.5581215,11.966332 L49.3127991,11.966332 L49.3127991,7.18795367 L43.7769959,7.18795367 L43.7769959,25.8918919 L36.6449795,25.8918919 L36.6449795,2 Z M59.501394,4.38918919 C59.501394,3.75206889 59.7447857,3.19459698 60.2315766,2.71675676 C60.7183674,2.23891653 61.267414,2 61.8787328,2 L79.3351919,2 L76.9578531,7.18795367 L66.6334104,7.18795367 L66.6334104,20.7039382 L72.2031755,20.7039382 L72.2031755,15.9255598 L69.418293,15.9255598 L69.418293,11.966332 L79.3351919,11.966332 L79.3351919,25.8918919 L61.8787328,25.8918919 C61.267414,25.8918919 60.7183674,25.6586639 60.2315766,25.1922008 C59.7447857,24.7257377 59.501394,24.1625773 59.501394,23.5027027 L59.501394,4.38918919 Z M81.7464927,2 L101.580291,2 L99.2029519,7.18795367 L88.8785091,7.18795367 L88.8785091,11.966332 L99.2029519,11.966332 L99.2029519,15.9255598 L88.8785091,15.9255598 L88.8785091,20.7039382 L101.580291,20.7039382 L99.2029519,25.8918919 L81.7464927,25.8918919 L81.7464927,2 Z M105.248185,3.0580695 L110.410406,3.0580695 L108.440611,12.205251 L103.27839,12.205251 L105.248185,3.0580695 Z M112.244353,20.7039382 L124.946135,20.7039382 L124.946135,15.9255598 L114.621692,15.9255598 C114.010373,15.9255598 113.461327,15.6923318 112.974536,15.2258687 C112.487745,14.7594056 112.244353,14.1962453 112.244353,13.5363707 L112.244353,4.38918919 C112.244353,3.75206889 112.487745,3.19459698 112.974536,2.71675676 C113.461327,2.23891653 114.010373,2 114.621692,2 L132.078151,2 L132.078151,7.18795367 L119.37637,7.18795367 L119.37637,11.966332 L129.700813,11.966332 C130.312131,11.966332 130.861178,12.2052486 131.347969,12.6830888 C131.83476,13.160929 132.078151,13.7184009 132.078151,14.3555212 L132.078151,23.5027027 C132.078151,24.1625773 131.83476,24.7257377 131.347969,25.1922008 C130.861178,25.6586639 130.312131,25.8918919 129.700813,25.8918919 L114.621692,25.8918919 L112.244353,20.7039382 Z M0.561371599,37.5567568 C0.561371599,37.0695471 0.747494722,36.6432451 1.11974655,36.2778378 C1.49199838,35.9124306 1.91185752,35.7297297 2.37933656,35.7297297 L15.7283936,35.7297297 L13.9104286,39.6969884 L6.01526649,39.6969884 L6.01526649,50.0327413 L15.7283936,50.0327413 L13.9104286,54 L2.37933656,54 C1.91185752,54 1.49199838,53.8216491 1.11974655,53.4649421 C0.747494722,53.108235 0.561371599,52.677583 0.561371599,52.172973 L0.561371599,37.5567568 Z M17.4165039,37.5567568 C17.4165039,37.0695471 17.602627,36.6432451 17.9748789,36.2778378 C18.3471307,35.9124306 18.7669898,35.7297297 19.2344689,35.7297297 L30.7655609,35.7297297 C31.23304,35.7297297 31.6528991,35.9124306 32.025151,36.2778378 C32.3974028,36.6432451 32.5835259,37.0695471 32.5835259,37.5567568 L32.5835259,52.172973 C32.5835259,52.677583 32.3974028,53.108235 32.025151,53.4649421 C31.6528991,53.8216491 31.23304,54 30.7655609,54 L19.2344689,54 C18.7669898,54 18.3471307,53.8216491 17.9748789,53.4649421 C17.602627,53.108235 17.4165039,52.677583 17.4165039,52.172973 L17.4165039,37.5567568 Z M27.129631,50.0327413 L27.129631,39.6969884 L22.8703988,39.6969884 L22.8703988,50.0327413 L27.129631,50.0327413 Z M34.4534327,35.7297297 L47.8024898,35.7297297 C48.2699688,35.7297297 48.6898279,35.9124306 49.0620798,36.2778378 C49.4343316,36.6432451 49.6204547,37.0695471 49.6204547,37.5567568 L49.6204547,54 L44.1665598,54 L44.1665598,39.6969884 L39.9073276,39.6969884 L39.9073276,54 L34.4534327,54 L34.4534327,35.7297297 Z M51.4903615,37.5567568 C51.4903615,37.0695471 51.6764847,36.6432451 52.0487365,36.2778378 C52.4209883,35.9124306 52.8408475,35.7297297 53.3083265,35.7297297 L66.6573835,35.7297297 L64.8394186,39.6969884 L56.9442564,39.6969884 L56.9442564,50.0327413 L66.6573835,50.0327413 L64.8394186,54 L53.3083265,54 C52.8408475,54 52.4209883,53.8216491 52.0487365,53.4649421 C51.6764847,53.108235 51.4903615,52.677583 51.4903615,52.172973 L51.4903615,37.5567568 Z M68.3454939,35.7297297 L81.6685799,35.7297297 C82.153373,35.7297297 82.5775606,35.9124306 82.9411554,36.2778378 C83.3047502,36.6432451 83.4865449,37.0695471 83.4865449,37.5567568 L83.4865449,44.5516602 C83.4865449,45.0388699 83.3047502,45.4651719 82.9411554,45.8305792 C82.5775606,46.1959864 82.153373,46.3786873 81.6685799,46.3786873 L80.6037719,46.3786873 L84.0838763,54 L79.2532836,54 L74.3967201,43.3510425 L78.03265,43.3510425 L78.03265,39.6969884 L73.7993887,39.6969884 L73.7993887,54 L68.3454939,54 L68.3454939,35.7297297 Z M85.8239284,35.7297297 L100.99095,35.7297297 L99.1729855,39.6969884 L91.2778233,39.6969884 L91.2778233,43.3510425 L99.1729855,43.3510425 L99.1729855,46.3786873 L91.2778233,46.3786873 L91.2778233,50.0327413 L100.99095,50.0327413 L99.1729855,54 L85.8239284,54 L85.8239284,35.7297297 Z M107.094119,39.6969884 L102.237555,39.6969884 L102.237555,35.7297297 L117.404577,35.7297297 L117.404577,39.6969884 L112.548013,39.6969884 L112.548013,54 L107.094119,54 L107.094119,39.6969884 Z M118.832978,35.7297297 L134,35.7297297 L132.182035,39.6969884 L124.286873,39.6969884 L124.286873,43.3510425 L132.182035,43.3510425 L132.182035,46.3786873 L124.286873,46.3786873 L124.286873,50.0327413 L134,50.0327413 L132.182035,54 L118.832978,54 L118.832978,35.7297297 Z"></path>
            </g>
        </g>
    </g>
</svg>