<?xml version="1.0" encoding="UTF-8"?>
<svg width="66px" height="66px" viewBox="0 0 66 66" version="1.1" xmlns="http://www.w3.org/2000/svg" xmlns:xlink="http://www.w3.org/1999/xlink">
    <!-- Generator: Sketch 46.2 (44496) - http://www.bohemiancoding.com/sketch -->
    <title>construction-safety-logo</title>
    <desc>Created with Sketch.</desc>
    <defs></defs>
    <g id="Home" stroke="none" stroke-width="1" fill="none" fill-rule="evenodd">
        <g id="construction-safety-logo" stroke="#FFFFFF">
            <g id="saftey" transform="translate(2.000000, 2.000000)">
                <g>
                    <path d="M20,31 L20,36 L11,40 C5,42 0,44.925 0,51 L0,63" id="Stroke-1" stroke-width="2" stroke-linejoin="round"></path>
                    <path d="M10,41 L10,63" id="Stroke-2" stroke-width="2" stroke-linejoin="round"></path>
                    <path d="M37,18 L37,20 L36,21 C36,26 33,33 26,33 C19,33 16,26 16,21 L15,20 L15,18" id="Stroke-3" stroke-width="2" stroke-linejoin="round"></path>
                    <polyline id="Stroke-4" stroke-width="2" stroke-linejoin="round" points="32 36 26 43 20 36"></polyline>
                    <path d="M40,12 C40,14.762 33.732,17 26,17 C18.268,17 12,14.762 12,12" id="Stroke-5" stroke-width="2" stroke-linejoin="round"></path>
                    <path d="M14,12 C14,5.373 19.373,-1.42108547e-14 26,-1.42108547e-14 C32.627,-1.42108547e-14 38,5.373 38,12" id="Stroke-6" stroke-width="2" stroke-linejoin="round"></path>
                    <path d="M28,4 C28,2.344 29.344,1 31,1" id="Stroke-7" stroke-width="2" stroke-linejoin="round"></path>
                    <path d="M28,4 L28,12" id="Stroke-8" stroke-width="2" stroke-linejoin="round"></path>
                    <path d="M21,1 C22.656,1 24,2.344 24,4" id="Stroke-9" stroke-width="2" stroke-linejoin="round"></path>
                    <path d="M24,4 L24,12" id="Stroke-10" stroke-width="2" stroke-linejoin="round"></path>
                    <path d="M16,38 L16,63" id="Stroke-11" stroke-width="2" stroke-linejoin="round"></path>
                    <polyline id="Stroke-12" stroke-width="2" stroke-linejoin="round" points="36 63 36 38 32 36 32 31"></polyline>
                    <polyline id="Stroke-13" stroke-width="2" points="59 31 62 31 62 62 40 62 40 31 43 31"></polyline>
                    <polygon id="Stroke-14" stroke-width="2" points="46 33 56 33 56 29 46 29"></polygon>
                    <path d="M47,37 L59,37" id="Stroke-15" stroke-width="2"></path>
                    <path d="M45,37 L43,37" id="Stroke-16" stroke-width="2"></path>
                    <path d="M47,41 L59,41" id="Stroke-17" stroke-width="2"></path>
                    <path d="M45,41 L43,41" id="Stroke-18" stroke-width="2"></path>
                    <path d="M47,45 L59,45" id="Stroke-19" stroke-width="2"></path>
                    <path d="M45,45 L43,45" id="Stroke-20" stroke-width="2"></path>
                    <path d="M47,49 L59,49" id="Stroke-21" stroke-width="2"></path>
                    <path d="M45,49 L43,49" id="Stroke-22" stroke-width="2"></path>
                    <path d="M59,56 L54,56" id="Stroke-23" stroke-width="2"></path>
                    <path d="M25,47 L27,47" id="Stroke-24" stroke-width="2" stroke-linejoin="round"></path>
                    <path d="M25,51 L27,51" id="Stroke-25" stroke-width="2" stroke-linejoin="round"></path>
                    <path d="M25,55 L27,55" id="Stroke-26" stroke-width="2" stroke-linejoin="round"></path>
                </g>
            </g>
        </g>
    </g>
</svg>